<?xml version="1.0" encoding="UTF-8" standalone="no"?>
<!DOCTYPE svg PUBLIC "-//W3C//DTD SVG 1.1//EN" "http://www.w3.org/Graphics/SVG/1.1/DTD/svg11.dtd">
<svg width="100%" height="100%" viewBox="0 0 24 24" version="1.1" xmlns="http://www.w3.org/2000/svg" xmlns:xlink="http://www.w3.org/1999/xlink" xml:space="preserve" xmlns:serif="http://www.serif.com/" style="fill-rule:evenodd;clip-rule:evenodd;stroke-linejoin:round;stroke-miterlimit:2;">
    <path d="M11,22L11,17.85L7.75,21.05L6.35,19.65L11,15L11,13L9,13L4.35,17.65L2.95,16.25L6.15,13L2,13L2,11L6.15,11L2.95,7.75L4.35,6.35L9,11L11,11L11,9L6.35,4.35L7.75,2.95L11,6.15L11,2L13,2L13,6.15L16.25,2.95L17.65,4.35L13,9L13,11L15,11L19.65,6.35L21.05,7.75L17.85,11L22,11L22,13L17.85,13L21.05,16.25L19.65,17.65L15,13L13,13L13,15L17.65,19.65L16.25,21.05L13,17.85L13,22L11,22Z" style="fill-rule:nonzero;"/>
</svg>
